<mxfile host="app.diagrams.net" modified="2023-12-12T06:54:58.562Z" agent="Mozilla/5.0 (Windows NT 10.0; Win64; x64) AppleWebKit/537.36 (KHTML, like Gecko) Chrome/120.0.0.0 Safari/537.36 Edg/120.0.0.0" version="21.1.1" etag="HllbuEaxiMe8BkV7_jff" type="github">
  <diagram name="第 1 页" id="JI-a8YgxsKplKU_BEBhr">
    <mxGraphModel>
      <root>
        <mxCell id="0" />
        <mxCell id="1" parent="0" />
      </root>
    </mxGraphModel>
  </diagram>
</mxfile>
